# xmcd CD database file
# Generated: Fri Mar 26 11:34:53 2004 by WSPse's MP3c
#
# Track frame offsets:
#       150
#       2230
#       15746
#       43333
#       69753
#       89103
#       108894
#       134039
#       156234
#       171683
#       190616
#       228189
#       241061
#
# Disc length: 3507 seconds
#
# Revision: 0
# Processed by: cddbd v1.5PL3 Copyright (c) Steve Scherf et al.
# Submitted via: MP3c 0.27
#   WSPse mp3c-0.27 (NLS) - ENGLISH (Jan 31 2004)
#
DISCID=ac0db10d
DTITLE=Leo Kysela - Leo Kysela Live
DYEAR=1900
DGENRE=
TTITLE0=Intro
TTITLE1=Oots
TTITLE2=Everybody's talking
TTITLE3=Time for lore
TTITLE4=Little Sister
TTITLE5=Keep on moving'
TTITLE6=Julia
TTITLE7=Georgia on my mind
TTITLE8=Techno blues
TTITLE9=Winternight
TTITLE10=For a handful of trust
TTITLE11=On the run
TTITLE12=Little Sister (X-Rated)
EXTD=
EXTT0=
EXTT1=
EXTT2=
EXTT3=
EXTT4=
EXTT5=
EXTT6=
EXTT7=
EXTT8=
EXTT9=
EXTT10=
EXTT11=
EXTT12=
PLAYORDER=
